<svg width="354" height="50" viewBox="0 0 354 50" fill="none" xmlns="http://www.w3.org/2000/svg">
<path d="M23.5039 27.9087H22.781C22.3794 27.9087 22.0581 27.7456 21.8172 27.5009C21.5762 27.1747 21.3353 26.8484 21.3353 26.5222V11.2702C21.3353 10.8624 21.4959 10.5362 21.7369 10.2915C21.9778 9.96527 22.2991 9.88371 22.781 9.88371H23.5039V9.14966H19.5683H18.2028L12.0183 22.281L5.59279 9.14966H4.06673H0.291748V9.88371H1.01462C1.41621 9.88371 1.73749 10.0468 1.97844 10.2915C2.2194 10.6178 2.38004 10.8624 2.38004 11.2702V26.7669C2.29972 27.0931 2.2194 27.3378 1.97844 27.5009C1.73749 27.8272 1.41621 27.9087 1.01462 27.9087H0.372067V28.6428H6.31566V27.9087H5.59279C5.1912 27.9087 4.86992 27.7456 4.62896 27.5009C4.38801 27.1747 4.14705 26.93 4.14705 26.5222C4.14705 26.5222 4.14705 11.4334 4.14705 11.1071C5.51247 13.9618 11.5364 26.1959 11.5364 26.1959H11.7773C12.9821 23.7491 16.4358 16.6533 19.1667 11.1071V26.4406C19.1667 26.8484 19.006 27.0931 18.7651 27.4194C18.4438 27.664 18.2028 27.8272 17.8012 27.8272H17.0784V28.5612H23.5842V27.9087H23.5039Z" fill="black"/>
<path d="M51.7164 9.14966C53.1621 9.14966 54.5275 9.39434 55.7323 9.88371C56.9371 10.3731 57.9812 11.0256 58.7844 11.9227C59.6679 12.8199 60.3105 13.8802 60.7924 15.1036C61.2743 16.327 61.5153 17.7136 61.5153 19.2632C61.5153 20.8129 61.2743 22.1179 60.7924 23.4229C60.3105 24.6463 59.6679 25.7066 58.7844 26.6038C57.9009 27.5009 56.8568 28.1534 55.7323 28.6428C54.5275 29.1322 53.1621 29.3768 51.7164 29.3768C50.2706 29.3768 48.9052 29.1322 47.7004 28.6428C46.4957 28.1534 45.4515 27.4194 44.6483 26.6038C43.7648 25.7066 43.1223 24.6463 42.6404 23.4229C42.1584 22.1994 41.9175 20.8129 41.9175 19.2632C41.9175 17.7951 42.1584 16.4086 42.6404 15.1036C43.1223 13.8802 43.7648 12.8199 44.6483 11.9227C45.5318 11.0256 46.576 10.3731 47.7004 9.88371C48.9855 9.39434 50.2706 9.14966 51.7164 9.14966ZM51.7967 28.0719C52.9212 28.0719 53.885 27.8272 54.7685 27.4194C55.652 27.0116 56.4552 26.4406 57.0977 25.625C57.7403 24.891 58.2222 23.9122 58.6238 22.8519C58.9451 21.7916 59.1057 20.5682 59.1057 19.1817C59.1057 17.8767 58.9451 16.6533 58.6238 15.593C58.2222 14.5327 57.7403 13.554 57.0977 12.8199C56.4552 12.0859 55.7323 11.4334 54.7685 11.0256C53.885 10.6178 52.8408 10.3731 51.7967 10.3731C50.6722 10.3731 49.7084 10.6178 48.8249 11.0256C47.9414 11.4334 47.1382 12.0859 46.4957 12.8199C45.8531 13.6355 45.2909 14.5327 44.9696 15.593C44.6483 16.6533 44.4877 17.8767 44.4877 19.1817C44.4877 20.4867 44.6483 21.7101 44.9696 22.8519C45.2909 23.9122 45.8531 24.891 46.4957 25.625C47.1382 26.4406 47.8611 27.0116 48.8249 27.4194C49.7084 27.8272 50.6722 28.0719 51.7967 28.0719Z" fill="black"/>
<path d="M97.6794 20.4867L97.2778 25.0541C96.8762 25.625 96.4746 26.1959 95.9927 26.7669C95.5108 27.2562 94.9486 27.7456 94.306 28.0718C93.6635 28.4797 92.9406 28.7243 92.1374 28.969C91.3342 29.2137 90.531 29.2953 89.5672 29.2953C88.1215 29.2953 86.8364 29.0506 85.6316 28.5612C84.4268 28.0718 83.3827 27.3378 82.5795 26.5222C81.696 25.625 81.0534 24.5647 80.5715 23.3413C80.0896 22.1179 79.8486 20.7313 79.8486 19.1817C79.8486 17.7136 80.0896 16.327 80.5715 15.1036C81.0534 13.8802 81.696 12.8199 82.5795 11.9227C83.463 11.0256 84.5071 10.3731 85.7119 9.88371C86.9167 9.39434 88.2821 9.14966 89.8082 9.14966C91.1736 9.14966 92.3784 9.31278 93.5028 9.72059C94.6273 10.1284 95.5108 10.5362 96.3943 11.1071L96.9565 15.3483H96.314C95.9124 13.7171 95.1092 12.4937 93.9847 11.6781C92.78 10.8624 91.4145 10.4546 89.8885 10.4546C88.6837 10.4546 87.7199 10.6993 86.756 11.1071C85.7922 11.5149 85.0694 12.0859 84.4268 12.9015C83.7843 13.6355 83.3023 14.6143 82.9811 15.6746C82.5795 16.7348 82.4991 17.9583 82.4991 19.2632C82.4991 20.5682 82.6598 21.7916 83.0614 22.8519C83.463 23.9122 83.9449 24.891 84.5874 25.625C85.23 26.3591 86.0332 27.0116 86.9167 27.4194C87.8002 27.8272 88.8443 28.0718 89.8885 28.1534C90.772 28.1534 91.6555 27.9903 92.539 27.7456C93.3422 27.5009 94.0651 27.0931 94.7879 26.5222C95.4305 25.9513 95.9927 25.1356 96.4746 24.2385C96.8762 23.2597 97.1975 22.1179 97.3581 20.7313H97.6794V20.4867Z" fill="black"/>
<path d="M161.654 9.14966C163.1 9.14966 164.466 9.39434 165.67 9.88371C166.875 10.3731 167.919 11.0256 168.803 11.9227C169.686 12.8199 170.329 13.8802 170.811 15.1036C171.293 16.327 171.534 17.7136 171.534 19.2632C171.534 20.8129 171.293 22.1179 170.811 23.4229C170.329 24.6463 169.606 25.7066 168.803 26.6038C167.919 27.5009 166.875 28.1534 165.67 28.6428C164.466 29.1321 163.18 29.3768 161.654 29.3768C160.209 29.3768 158.843 29.1321 157.719 28.6428C156.514 28.1534 155.47 27.4194 154.586 26.6038C153.703 25.7066 153.06 24.6463 152.578 23.4229C152.096 22.1994 151.855 20.8129 151.855 19.2632C151.855 17.7951 152.096 16.4086 152.578 15.1036C153.06 13.8802 153.783 12.8199 154.586 11.9227C155.47 11.0256 156.514 10.3731 157.719 9.88371C158.924 9.39434 160.209 9.14966 161.654 9.14966ZM161.654 28.0719C162.779 28.0719 163.743 27.8272 164.626 27.4194C165.51 27.0116 166.313 26.4406 166.955 25.625C167.598 24.891 168.08 23.9122 168.401 22.8519C168.803 21.7916 168.963 20.5682 168.963 19.1817C168.963 17.8767 168.803 16.6533 168.401 15.593C168 14.5327 167.518 13.554 166.955 12.8199C166.313 12.0859 165.51 11.4334 164.626 11.0256C163.743 10.6178 162.699 10.3731 161.654 10.3731C160.53 10.3731 159.566 10.6178 158.683 11.0256C157.799 11.4334 156.996 12.0859 156.353 12.8199C155.711 13.6355 155.229 14.5327 154.827 15.593C154.506 16.6533 154.345 17.8767 154.345 19.1817C154.345 20.4867 154.506 21.7101 154.827 22.8519C155.229 23.9122 155.711 24.891 156.353 25.625C156.996 26.4406 157.799 27.0116 158.683 27.4194C159.566 27.8272 160.61 28.0719 161.654 28.0719Z" fill="black"/>
<path d="M195.57 9.14966C197.497 9.23122 198.943 9.63903 199.987 10.5362C201.031 11.3518 201.513 12.5752 201.513 13.9618C201.513 15.0221 201.272 15.8377 200.791 16.4902C200.309 17.1427 199.746 17.7136 199.104 18.0398C200.389 18.3661 201.353 19.0186 202.076 19.9973C202.799 20.8945 203.2 22.0363 203.2 23.3413C203.2 24.9725 202.638 26.2775 201.513 27.2562C200.389 28.235 198.783 28.6428 196.694 28.6428H189.867V27.9087H190.429C190.831 27.9087 191.152 27.7456 191.474 27.5009C191.715 27.1747 191.875 26.8484 191.955 26.4406V11.3518C191.955 10.944 191.795 10.6178 191.554 10.2915C191.233 9.96527 190.911 9.88371 190.51 9.88371H189.948V9.14966H195.57ZM196.132 17.7951C196.614 17.7136 197.096 17.5505 197.578 17.3058C197.979 17.0611 198.381 16.6533 198.702 16.1639C199.024 15.6746 199.184 15.0221 199.184 14.2065C199.184 13.0646 198.863 12.1674 198.22 11.5149C197.578 10.8624 196.694 10.5362 195.49 10.5362H194.285V17.9583C195.088 17.9583 195.65 17.8767 196.132 17.7951ZM196.694 27.2562C197.979 27.1747 198.943 26.8484 199.746 26.1144C200.469 25.3803 200.871 24.4016 200.871 23.1782C200.871 22.1994 200.71 21.4654 200.309 20.8129C199.907 20.242 199.425 19.7526 198.863 19.4264C198.301 19.1001 197.658 18.937 196.855 18.7739C196.212 18.6923 195.329 18.6108 194.285 18.6108V27.1747L196.694 27.2562Z" fill="black"/>
<path d="M239.364 20.4867L238.962 25.0541C238.561 25.625 238.159 26.1959 237.677 26.7669C237.195 27.2562 236.633 27.7456 235.991 28.0718C235.348 28.4797 234.625 28.7243 233.902 28.969C233.099 29.2137 232.296 29.2953 231.332 29.2953C229.886 29.2953 228.601 29.0506 227.396 28.5612C226.192 28.0718 225.148 27.3378 224.264 26.5222C223.381 25.625 222.738 24.5647 222.256 23.3413C221.774 22.1179 221.533 20.7313 221.533 19.1817C221.533 17.7136 221.774 16.327 222.256 15.1036C222.738 13.8802 223.381 12.8199 224.264 11.9227C225.148 11.0256 226.192 10.3731 227.396 9.88371C228.601 9.39434 229.967 9.14966 231.493 9.14966C232.858 9.14966 234.063 9.31278 235.187 9.72059C236.312 10.1284 237.195 10.5362 238.079 11.1071L238.641 15.3483H237.999C237.597 13.7171 236.794 12.4937 235.669 11.6781C234.465 10.8624 233.099 10.4546 231.573 10.4546C230.449 10.4546 229.404 10.6993 228.521 11.1071C227.557 11.5149 226.834 12.0859 226.192 12.9015C225.549 13.6355 225.067 14.6143 224.666 15.6746C224.344 16.7348 224.184 17.9583 224.184 19.2632C224.184 20.5682 224.344 21.7916 224.746 22.8519C225.148 23.9122 225.629 24.891 226.272 25.625C226.915 26.3591 227.718 27.0116 228.601 27.4194C229.485 27.8272 230.529 28.0718 231.573 28.1534C232.457 28.1534 233.34 27.9903 234.224 27.7456C235.027 27.5009 235.75 27.0931 236.473 26.5222C237.115 25.9513 237.677 25.1356 238.079 24.2385C238.561 23.2597 238.802 22.1179 239.043 20.7313H239.364V20.4867Z" fill="black"/>
<path d="M299.403 9.55746V10.2915H298.68C298.279 10.2915 297.958 10.4546 297.717 10.6993C297.395 10.944 297.315 11.2702 297.235 11.6781V24.5647L311.451 9.14966H311.853V26.8484C311.853 27.2562 312.013 27.5825 312.254 27.9087C312.576 28.235 312.817 28.3165 313.218 28.3165H313.941V29.0506H307.997V28.3165H308.72C309.122 28.3165 309.443 28.1534 309.684 27.9087C310.005 27.664 310.086 27.3378 310.166 26.93V13.9618L295.95 29.3768H295.628V11.6781C295.628 11.2702 295.468 11.0256 295.227 10.6993C294.905 10.3731 294.664 10.2915 294.263 10.2915H293.54V9.55746H299.403Z" fill="black"/>
<path d="M132.96 27.9087C132.8 27.9087 132.639 27.9087 132.478 27.9087H132.398C130.872 27.7456 129.667 26.6038 129.506 26.4406L122.679 18.6923L128.864 11.1071C129.185 10.6993 129.587 10.4546 130.069 10.21C130.551 9.96527 131.033 9.88371 131.595 9.88371H131.916V9.14966H125.812V9.88371H126.294C126.535 9.88371 126.695 9.96527 126.776 10.0468C126.856 10.1284 126.936 10.2915 126.936 10.4546C126.936 10.6178 126.856 10.6993 126.776 10.8624L120.27 18.7739V11.3518C120.27 10.944 120.511 10.6178 120.752 10.2915C121.073 9.96527 121.394 9.88371 121.796 9.88371H122.358V9.14966H116.013V9.88371H116.575C116.977 9.88371 117.298 10.0468 117.619 10.2915C117.86 10.6178 118.021 10.944 118.101 11.3518V26.3591C118.021 26.7669 117.86 27.0931 117.619 27.4194C117.298 27.7456 116.977 27.8272 116.575 27.8272H116.013V28.5612H122.358V27.8272H121.796C121.394 27.8272 121.073 27.664 120.752 27.4194C120.511 27.0931 120.35 26.7669 120.27 26.3591V19.1817L126.936 26.93C127.177 27.0931 127.258 27.5009 127.097 27.664C126.936 27.8272 126.695 27.9087 126.454 27.9087H125.812V28.5612H131.113H132.398H133.522V27.9087H132.96Z" fill="black"/>
<path d="M274.645 27.9087C274.484 27.9087 274.323 27.9087 274.163 27.9087H274.082C272.396 27.664 271.191 26.4406 271.191 26.4406L264.364 18.6923L270.548 11.1071C270.87 10.6993 271.271 10.4546 271.753 10.21C272.235 9.96527 272.717 9.88371 273.279 9.88371H273.6V9.14966H267.496V9.88371H267.978C268.219 9.88371 268.38 9.96527 268.46 10.0468C268.54 10.1284 268.621 10.2915 268.621 10.4546C268.621 10.6178 268.54 10.6993 268.46 10.8624L261.954 18.7739V11.3518C261.954 10.944 262.115 10.6178 262.436 10.2915C262.677 9.96527 263.079 9.88371 263.48 9.88371H264.042V9.14966H257.697V9.88371H258.259C258.661 9.88371 258.982 10.0468 259.304 10.2915C259.545 10.6178 259.705 10.944 259.786 11.3518V26.3591C259.705 26.7669 259.545 27.0931 259.304 27.4194C258.982 27.7456 258.661 27.8272 258.259 27.8272H257.697V28.5612H264.042V27.8272H263.48C263.079 27.8272 262.677 27.664 262.436 27.4194C262.115 27.0931 262.034 26.7669 261.954 26.3591V19.1817L268.621 26.93C268.862 27.0931 268.942 27.5009 268.781 27.664C268.621 27.8272 268.38 27.9087 268.139 27.9087H267.496V28.5612H272.797H274.082H275.207V27.9087H274.645Z" fill="black"/>
<path d="M338.299 9.08969V9.82374H337.576C337.174 9.82374 336.853 9.98686 336.612 10.2315C336.371 10.4762 336.21 10.8025 336.13 11.2103V24.0969L350.346 8.68188H350.668V26.3807C350.668 26.7885 350.828 27.1147 351.069 27.441C351.391 27.7672 351.712 27.8488 352.033 27.8488H352.756V28.5828H346.812V27.8488H347.535C347.937 27.8488 348.258 27.6856 348.499 27.441C348.74 27.1963 348.901 26.87 348.901 26.4622V13.494L334.684 28.9091H334.363V11.2103C334.363 10.8025 334.202 10.5578 333.961 10.2315C333.72 9.9053 333.399 9.82374 332.998 9.82374H332.275V9.08969H338.299Z" fill="black"/>
<path d="M347.294 3.46021H338.78V4.92831H347.294V3.46021Z" fill="black"/>
<path d="M1.93182 44.4412C2.23053 44.5504 2.50627 44.5791 2.75902 44.5274C3.01178 44.4699 3.23868 44.2775 3.43974 43.9501L3.7327 43.4848L3.81887 43.39L6.03335 39.1678H6.8864L4.20662 44.131C4.00557 44.5101 3.77004 44.7974 3.50005 44.9927C3.23581 45.1822 2.94859 45.2856 2.63839 45.3029C2.33393 45.3259 2.02373 45.2684 1.70779 45.1305L1.93182 44.4412ZM3.79302 44.1569L1.14771 39.1678H2.06969L4.26694 43.4675L3.79302 44.1569Z" fill="black"/>
<path d="M20.6107 39.1678H21.4723V45.1995H20.6107V39.1678ZM17.1468 45.1995H16.2851V39.1678H17.1468V45.1995ZM20.6882 42.5111H17.0606V41.7614H20.6882V42.5111Z" fill="black"/>
<path d="M31.8581 45.1995V39.1678H32.7112V43.8208L36.2785 39.1678H37.0712V45.1995H36.2268V40.5551L32.6508 45.1995H31.8581Z" fill="black"/>
<path d="M47.4564 45.1995V39.1678H50.05C50.7048 39.1678 51.219 39.2999 51.5924 39.5642C51.9658 39.8284 52.1524 40.2133 52.1524 40.7188C52.1524 41.2128 51.9744 41.592 51.6182 41.8562C51.2621 42.1147 50.7939 42.244 50.2137 42.244L50.3688 41.9855C51.0409 41.9855 51.555 42.1205 51.9112 42.3904C52.2731 42.6547 52.454 43.0424 52.454 43.5537C52.454 44.0707 52.2645 44.4757 51.8853 44.7686C51.5119 45.0559 50.9547 45.1995 50.2137 45.1995H47.4564ZM48.3094 44.5188H50.1965C50.656 44.5188 51.0007 44.4355 51.2305 44.2689C51.466 44.0965 51.5837 43.8352 51.5837 43.4848C51.5837 43.1343 51.466 42.8787 51.2305 42.7179C51.0007 42.557 50.656 42.4766 50.1965 42.4766H48.3094V44.5188ZM48.3094 41.8217H49.9897C50.409 41.8217 50.7278 41.7384 50.9461 41.5719C51.1701 41.4053 51.2822 41.1611 51.2822 40.8394C51.2822 40.512 51.1701 40.265 50.9461 40.0984C50.7278 39.9318 50.409 39.8485 49.9897 39.8485H48.3094V41.8217Z" fill="black"/>
<path d="M63.1824 41.77H66.2844V42.5025H63.1824V41.77ZM63.2599 44.4498H66.7755V45.1995H62.3983V39.1678H66.6549V39.9175H63.2599V44.4498Z" fill="black"/>
<path d="M76.6333 45.1995V39.1678H78.9857C79.5142 39.1678 79.9651 39.2511 80.3385 39.4177C80.7119 39.5843 80.9991 39.8255 81.2002 40.1415C81.4012 40.4574 81.5018 40.8337 81.5018 41.2703C81.5018 41.7069 81.4012 42.0831 81.2002 42.3991C80.9991 42.7093 80.7119 42.9505 80.3385 43.1229C79.9651 43.2894 79.5142 43.3727 78.9857 43.3727H77.1073L77.495 42.9678V45.1995H76.6333ZM77.495 43.0539L77.1073 42.6231H78.9598C79.5113 42.6231 79.9278 42.5053 80.2093 42.2698C80.4965 42.0343 80.6401 41.7011 80.6401 41.2703C80.6401 40.8394 80.4965 40.5063 80.2093 40.2707C79.9278 40.0352 79.5113 39.9175 78.9598 39.9175H77.1073L77.495 39.4866V43.0539Z" fill="black"/>
<path d="M91.205 45.1995V39.1678H91.9116L94.6172 43.726H94.2381L96.9092 39.1678H97.6158L97.6244 45.1995H96.7972L96.7886 40.4689H96.9868L94.6086 44.4671H94.2122L91.8168 40.4689H92.0322V45.1995H91.205Z" fill="black"/>
<path d="M107.171 45.1995L109.902 39.1678H110.755L113.495 45.1995H112.591L110.152 39.6503H110.497L108.058 45.1995H107.171ZM108.334 43.6916L108.567 43.0022H111.962L112.211 43.6916H108.334Z" fill="black"/>
<path d="M123.041 45.1995V39.1678H126.996L126.987 39.9175H123.679L123.885 39.702L123.894 45.1995H123.041Z" fill="black"/>
<path d="M150.043 45.2684C149.583 45.2684 149.158 45.1937 148.768 45.0444C148.383 44.8893 148.047 44.6739 147.759 44.3981C147.478 44.1166 147.257 43.7892 147.096 43.4158C146.935 43.0424 146.855 42.6317 146.855 42.1836C146.855 41.7356 146.935 41.3248 147.096 40.9515C147.257 40.5781 147.481 40.2535 147.768 39.9778C148.055 39.6963 148.391 39.4809 148.776 39.3315C149.167 39.1764 149.592 39.0989 150.051 39.0989C150.517 39.0989 150.945 39.1793 151.335 39.3401C151.732 39.4952 152.068 39.7279 152.344 40.0381L151.783 40.5809C151.554 40.3397 151.295 40.1616 151.008 40.0467C150.721 39.9261 150.413 39.8658 150.086 39.8658C149.747 39.8658 149.431 39.9232 149.138 40.0381C148.851 40.153 148.601 40.3138 148.388 40.5206C148.176 40.7274 148.009 40.9744 147.889 41.2617C147.774 41.5431 147.716 41.8505 147.716 42.1836C147.716 42.5168 147.774 42.827 147.889 43.1142C148.009 43.3957 148.176 43.6399 148.388 43.8467C148.601 44.0535 148.851 44.2143 149.138 44.3292C149.431 44.4441 149.747 44.5015 150.086 44.5015C150.413 44.5015 150.721 44.4441 151.008 44.3292C151.295 44.2086 151.554 44.0247 151.783 43.7777L152.344 44.3206C152.068 44.6308 151.732 44.8663 151.335 45.0271C150.945 45.188 150.514 45.2684 150.043 45.2684Z" fill="black"/>
<path d="M161.056 45.1995L163.788 39.1678H164.641L167.381 45.1995H166.476L164.038 39.6503H164.382L161.944 45.1995H161.056ZM162.22 43.6916L162.452 43.0022H165.847L166.097 43.6916H162.22Z" fill="black"/>
<path d="M181.252 39.1678H182.114V45.1995H181.252V39.1678ZM177.788 45.1995H176.927V39.1678H177.788V45.1995ZM181.33 42.5111H177.702V41.7614H181.33V42.5111Z" fill="black"/>
<path d="M196.558 45.1995L194.37 42.2267L195.068 41.7959L197.541 45.1995H196.558ZM192.5 45.1995V39.1678H193.344V45.1995H192.5ZM193.086 42.5455V41.7873H195.042V42.5455H193.086ZM195.145 42.2784L194.352 42.1578L196.515 39.1678H197.437L195.145 42.2784Z" fill="black"/>
<path d="M208.102 45.1995V39.6934L208.317 39.9175H206.042V39.1678H211.014V39.9175H208.739L208.946 39.6934V45.1995H208.102Z" fill="black"/>
<path d="M219.832 43.1918V42.4766H222.15V43.1918H219.832Z" fill="black"/>
<path d="M232.083 45.1995V39.1678H237.279V45.1995H236.435V39.6934L236.641 39.9175H232.721L232.936 39.6934V45.1995H232.083Z" fill="black"/>
<path d="M248.449 41.77H251.551V42.5025H248.449V41.77ZM248.526 44.4498H252.042V45.1995H247.665V39.1678H251.921V39.9175H248.526V44.4498Z" fill="black"/>
<path d="M263.132 45.1995V39.6934L263.347 39.9175H261.072V39.1678H266.044V39.9175H263.769L263.976 39.6934V45.1995H263.132Z" fill="black"/>
<path d="M276.38 41.77H279.482V42.5025H276.38V41.77ZM276.458 44.4498H279.973V45.1995H275.596V39.1678H279.853V39.9175H276.458V44.4498Z" fill="black"/>
<path d="M289.831 45.1995V39.1678H292.184C292.712 39.1678 293.163 39.2511 293.536 39.4177C293.91 39.5843 294.197 39.8255 294.398 40.1415C294.599 40.4574 294.7 40.8337 294.7 41.2703C294.7 41.7069 294.599 42.0831 294.398 42.3991C294.197 42.7093 293.91 42.9505 293.536 43.1229C293.163 43.2894 292.712 43.3727 292.184 43.3727H290.305L290.693 42.9678V45.1995H289.831ZM290.693 43.0539L290.305 42.6231H292.158C292.709 42.6231 293.126 42.5053 293.407 42.2698C293.694 42.0343 293.838 41.7011 293.838 41.2703C293.838 40.8394 293.694 40.5063 293.407 40.2707C293.126 40.0352 292.709 39.9175 292.158 39.9175H290.305L290.693 39.4866V43.0539Z" fill="black"/>
<path d="M304.403 45.1995V39.1678H308.952V39.9002H305.256V41.6236H307.134C307.852 41.6236 308.398 41.7729 308.771 42.0716C309.145 42.3703 309.332 42.804 309.332 43.3727C309.332 43.9587 309.128 44.4096 308.72 44.7256C308.318 45.0415 307.74 45.1995 306.988 45.1995H304.403ZM305.256 44.5188H306.953C307.453 44.5188 307.829 44.424 308.082 44.2344C308.341 44.0448 308.47 43.7634 308.47 43.39C308.47 42.6662 307.964 42.3043 306.953 42.3043H305.256V44.5188Z" fill="black"/>
<path d="M318.999 44.4412C319.298 44.5504 319.574 44.5791 319.827 44.5274C320.079 44.4699 320.306 44.2775 320.507 43.9501L320.8 43.4848L320.886 43.39L323.101 39.1678H323.954L321.274 44.131C321.073 44.5101 320.838 44.7974 320.568 44.9927C320.303 45.1822 320.016 45.2856 319.706 45.3029C319.401 45.3259 319.091 45.2684 318.775 45.1305L318.999 44.4412ZM320.861 44.1569L318.215 39.1678H319.137L321.334 43.4675L320.861 44.1569Z" fill="black"/>
<path d="M333.353 45.1995V39.1678H335.705C336.233 39.1678 336.684 39.2511 337.058 39.4177C337.431 39.5843 337.718 39.8255 337.919 40.1415C338.12 40.4574 338.221 40.8337 338.221 41.2703C338.221 41.7069 338.12 42.0831 337.919 42.3991C337.718 42.7093 337.431 42.9505 337.058 43.1229C336.684 43.2894 336.233 43.3727 335.705 43.3727H333.827L334.214 42.9678V45.1995H333.353ZM334.214 43.0539L333.827 42.6231H335.679C336.231 42.6231 336.647 42.5053 336.929 42.2698C337.216 42.0343 337.359 41.7011 337.359 41.2703C337.359 40.8394 337.216 40.5063 336.929 40.2707C336.647 40.0352 336.231 39.9175 335.679 39.9175H333.827L334.214 39.4866V43.0539Z" fill="black"/>
<path d="M347.924 45.1995V39.1678H351.879L351.871 39.9175H348.562L348.769 39.702L348.777 45.1995H347.924Z" fill="black"/>
</svg>
