<svg width="24" height="24" viewBox="0 0 24 24" fill="none" xmlns="http://www.w3.org/2000/svg">
<path d="M0.632201 19.8878L1.02967 7.5H22.9703L23.3678 19.8878C23.4312 21.8637 21.8466 23.5 19.8696 23.5H4.1304C2.15342 23.5 0.568801 21.8637 0.632201 19.8878Z" stroke="black"/>
<path d="M17 9V6C17 3.23858 14.7614 1 12 1V1C9.23858 1 7 3.23858 7 6L7 9" stroke="black" stroke-linecap="square" stroke-linejoin="bevel"/>
<path d="M8.19041 19.5V13.0265L6.70541 13.934V12.471L8.19041 11.58H9.54341V19.5H8.19041ZM11.4187 19.489V18.334L14.8067 15.3145C15.0707 15.0798 15.254 14.858 15.3567 14.649C15.4593 14.44 15.5107 14.2383 15.5107 14.044C15.5107 13.78 15.4538 13.5453 15.3402 13.34C15.2265 13.131 15.0688 12.966 14.8672 12.845C14.6692 12.724 14.44 12.6635 14.1797 12.6635C13.9047 12.6635 13.6608 12.7277 13.4482 12.856C13.2392 12.9807 13.076 13.1475 12.9587 13.3565C12.8413 13.5655 12.7863 13.791 12.7937 14.033H11.4297C11.4297 13.505 11.547 13.0448 11.7817 12.6525C12.02 12.2602 12.3463 11.9558 12.7607 11.7395C13.1787 11.5232 13.6608 11.415 14.2072 11.415C14.7132 11.415 15.1678 11.5287 15.5712 11.756C15.9745 11.9797 16.2917 12.2913 16.5227 12.691C16.7537 13.087 16.8692 13.5435 16.8692 14.0605C16.8692 14.4382 16.8178 14.7553 16.7152 15.012C16.6125 15.2687 16.4585 15.5052 16.2532 15.7215C16.0515 15.9378 15.8003 16.178 15.4997 16.442L13.0962 18.5705L12.9752 18.2405H16.8692V19.489H11.4187Z" fill="black"/>
</svg>
