<svg width="39" height="24" viewBox="0 0 39 24" fill="none" xmlns="http://www.w3.org/2000/svg">
<path d="M11.491 16.6799C11.0511 16.6799 10.6413 16.59 10.2614 16.41C9.88157 16.2261 9.55369 15.9742 9.27779 15.6543C9.0059 15.3344 8.80997 14.9626 8.69002 14.5387L10.0815 14.1669C10.1375 14.3988 10.2394 14.5987 10.3874 14.7667C10.5393 14.9346 10.7153 15.0645 10.9152 15.1565C11.1191 15.2485 11.329 15.2945 11.5449 15.2945C11.8248 15.2945 12.0807 15.2265 12.3126 15.0905C12.5446 14.9546 12.7285 14.7727 12.8644 14.5447C13.0004 14.3128 13.0684 14.0569 13.0684 13.777C13.0684 13.4971 12.9984 13.2432 12.8584 13.0153C12.7225 12.7834 12.5386 12.6015 12.3067 12.4695C12.0747 12.3336 11.8208 12.2656 11.5449 12.2656C11.2131 12.2656 10.9372 12.3256 10.7173 12.4455C10.5013 12.5655 10.3354 12.6934 10.2194 12.8294L8.9839 12.4335L9.2478 7.86326H13.938V9.21875H10.0215L10.5613 8.70894L10.3694 11.8877L10.1055 11.5639C10.3294 11.3599 10.5893 11.208 10.8852 11.108C11.1811 11.0081 11.467 10.9581 11.7429 10.9581C12.2827 10.9581 12.7605 11.082 13.1763 11.33C13.5962 11.5739 13.924 11.9077 14.16 12.3316C14.3999 12.7554 14.5198 13.2372 14.5198 13.777C14.5198 14.3168 14.3799 14.8066 14.1 15.2465C13.8201 15.6823 13.4502 16.0302 12.9904 16.2901C12.5346 16.55 12.0348 16.6799 11.491 16.6799ZM19.0654 16.6799C18.4536 16.6799 17.9138 16.55 17.446 16.2901C16.9781 16.0262 16.6123 15.6603 16.3484 15.1925C16.0885 14.7247 15.9585 14.1849 15.9585 13.5731V10.7902C15.9585 10.1784 16.0885 9.63859 16.3484 9.17076C16.6123 8.70294 16.9781 8.33908 17.446 8.07918C17.9138 7.81528 18.4536 7.68333 19.0654 7.68333C19.6771 7.68333 20.2149 7.81528 20.6787 8.07918C21.1466 8.33908 21.5124 8.70294 21.7763 9.17076C22.0402 9.63859 22.1722 10.1784 22.1722 10.7902V13.5731C22.1722 14.1849 22.0402 14.7247 21.7763 15.1925C21.5124 15.6603 21.1466 16.0262 20.6787 16.2901C20.2149 16.55 19.6771 16.6799 19.0654 16.6799ZM19.0654 15.3065C19.3692 15.3065 19.6451 15.2345 19.893 15.0905C20.1409 14.9426 20.3369 14.7467 20.4808 14.5028C20.6248 14.2548 20.6967 13.979 20.6967 13.6751V10.6822C20.6967 10.3743 20.6248 10.0984 20.4808 9.85451C20.3369 9.6066 20.1409 9.41067 19.893 9.26673C19.6451 9.11878 19.3692 9.04481 19.0654 9.04481C18.7615 9.04481 18.4856 9.11878 18.2377 9.26673C17.9898 9.41067 17.7938 9.6066 17.6499 9.85451C17.5059 10.0984 17.434 10.3743 17.434 10.6822V13.6751C17.434 13.979 17.5059 14.2548 17.6499 14.5028C17.7938 14.7467 17.9898 14.9426 18.2377 15.0905C18.4856 15.2345 18.7615 15.3065 19.0654 15.3065ZM26.9608 16.6799C26.349 16.6799 25.8092 16.55 25.3414 16.2901C24.8736 16.0262 24.5077 15.6603 24.2438 15.1925C23.9839 14.7247 23.854 14.1849 23.854 13.5731V10.7902C23.854 10.1784 23.9839 9.63859 24.2438 9.17076C24.5077 8.70294 24.8736 8.33908 25.3414 8.07918C25.8092 7.81528 26.349 7.68333 26.9608 7.68333C27.5726 7.68333 28.1104 7.81528 28.5742 8.07918C29.042 8.33908 29.4079 8.70294 29.6718 9.17076C29.9357 9.63859 30.0676 10.1784 30.0676 10.7902V13.5731C30.0676 14.1849 29.9357 14.7247 29.6718 15.1925C29.4079 15.6603 29.042 16.0262 28.5742 16.2901C28.1104 16.55 27.5726 16.6799 26.9608 16.6799ZM26.9608 15.3065C27.2647 15.3065 27.5406 15.2345 27.7885 15.0905C28.0364 14.9426 28.2323 14.7467 28.3763 14.5028C28.5202 14.2548 28.5922 13.979 28.5922 13.6751V10.6822C28.5922 10.3743 28.5202 10.0984 28.3763 9.85451C28.2323 9.6066 28.0364 9.41067 27.7885 9.26673C27.5406 9.11878 27.2647 9.04481 26.9608 9.04481C26.6569 9.04481 26.381 9.11878 26.1331 9.26673C25.8852 9.41067 25.6893 9.6066 25.5453 9.85451C25.4014 10.0984 25.3294 10.3743 25.3294 10.6822V13.6751C25.3294 13.979 25.4014 14.2548 25.5453 14.5028C25.6893 14.7467 25.8852 14.9426 26.1331 15.0905C26.381 15.2345 26.6569 15.3065 26.9608 15.3065Z" fill="black"/>
<rect x="0.5" y="0.5" width="38" height="23" rx="4.5" stroke="black"/>
</svg>
